<mxfile host="app.diagrams.net" agent="Mozilla/5.0 (Windows NT 10.0; Win64; x64) AppleWebKit/537.36 (KHTML, like Gecko) Chrome/131.0.0.0 Safari/537.36 Edg/131.0.0.0" version="25.0.3">
  <diagram name="PÃ¡gina-1" id="DSsV8DWDBR_ftwG_JCP_">
    <mxGraphModel dx="1838" dy="797" grid="0" gridSize="10" guides="1" tooltips="1" connect="1" arrows="1" fold="1" page="0" pageScale="1" pageWidth="850" pageHeight="1100" math="0" shadow="0">
      <root>
        <mxCell id="0" />
        <mxCell id="1" parent="0" />
        <mxCell id="RS6zTbp3aKnHrUGYqz4E-13" style="edgeStyle=none;curved=1;rounded=0;orthogonalLoop=1;jettySize=auto;html=1;exitX=0;exitY=0.5;exitDx=0;exitDy=0;fontSize=12;startSize=8;endSize=8;" edge="1" parent="1" source="RS6zTbp3aKnHrUGYqz4E-1" target="RS6zTbp3aKnHrUGYqz4E-2">
          <mxGeometry relative="1" as="geometry" />
        </mxCell>
        <mxCell id="RS6zTbp3aKnHrUGYqz4E-1" value="Internet (Zerotier)" style="image;aspect=fixed;perimeter=ellipsePerimeter;html=1;align=center;shadow=0;dashed=0;spacingTop=3;image=img/lib/active_directory/internet_cloud.svg;" vertex="1" parent="1">
          <mxGeometry x="223" y="48.75" width="50" height="31.5" as="geometry" />
        </mxCell>
        <mxCell id="RS6zTbp3aKnHrUGYqz4E-14" style="edgeStyle=none;curved=1;rounded=0;orthogonalLoop=1;jettySize=auto;html=1;fontSize=12;startSize=8;endSize=8;" edge="1" parent="1" source="RS6zTbp3aKnHrUGYqz4E-2" target="RS6zTbp3aKnHrUGYqz4E-3">
          <mxGeometry relative="1" as="geometry" />
        </mxCell>
        <mxCell id="RS6zTbp3aKnHrUGYqz4E-2" value="Telmex Datacenter&lt;div&gt;IP: 189.174.66.158&lt;/div&gt;" style="sketch=0;pointerEvents=1;shadow=0;dashed=0;html=1;strokeColor=none;fillColor=#505050;labelPosition=center;verticalLabelPosition=bottom;verticalAlign=top;outlineConnect=0;align=center;shape=mxgraph.office.servers.datacenter;" vertex="1" parent="1">
          <mxGeometry x="66" y="38" width="53" height="53" as="geometry" />
        </mxCell>
        <mxCell id="RS6zTbp3aKnHrUGYqz4E-15" style="edgeStyle=none;curved=1;rounded=0;orthogonalLoop=1;jettySize=auto;html=1;entryX=0.5;entryY=0;entryDx=0;entryDy=0;fontSize=12;startSize=8;endSize=8;" edge="1" parent="1" source="RS6zTbp3aKnHrUGYqz4E-3" target="RS6zTbp3aKnHrUGYqz4E-4">
          <mxGeometry relative="1" as="geometry" />
        </mxCell>
        <mxCell id="RS6zTbp3aKnHrUGYqz4E-3" value="Office&lt;div&gt;IP: 192.168.1.0/24&lt;/div&gt;" style="verticalLabelPosition=bottom;sketch=0;aspect=fixed;html=1;verticalAlign=top;strokeColor=none;align=center;outlineConnect=0;shape=mxgraph.citrix.home_office;" vertex="1" parent="1">
          <mxGeometry x="35" y="196.5" width="80" height="55.5" as="geometry" />
        </mxCell>
        <mxCell id="RS6zTbp3aKnHrUGYqz4E-4" value="Webserver&lt;div&gt;IP: 192.168.1.69&lt;/div&gt;" style="image;aspect=fixed;perimeter=ellipsePerimeter;html=1;align=center;shadow=0;dashed=0;spacingTop=3;image=img/lib/active_directory/web_server.svg;" vertex="1" parent="1">
          <mxGeometry x="139" y="302" width="40" height="50" as="geometry" />
        </mxCell>
        <mxCell id="RS6zTbp3aKnHrUGYqz4E-10" style="edgeStyle=none;curved=1;rounded=0;orthogonalLoop=1;jettySize=auto;html=1;entryX=0.5;entryY=1;entryDx=0;entryDy=0;fontSize=12;startSize=8;endSize=8;" edge="1" parent="1" source="RS6zTbp3aKnHrUGYqz4E-5" target="RS6zTbp3aKnHrUGYqz4E-9">
          <mxGeometry relative="1" as="geometry" />
        </mxCell>
        <mxCell id="RS6zTbp3aKnHrUGYqz4E-5" value="Android" style="sketch=0;aspect=fixed;pointerEvents=1;shadow=0;dashed=0;html=1;strokeColor=none;labelPosition=center;verticalLabelPosition=bottom;verticalAlign=top;align=center;fillColor=#00188D;shape=mxgraph.mscae.enterprise.android_phone" vertex="1" parent="1">
          <mxGeometry x="432" y="306" width="30" height="50" as="geometry" />
        </mxCell>
        <mxCell id="RS6zTbp3aKnHrUGYqz4E-12" style="edgeStyle=none;curved=1;rounded=0;orthogonalLoop=1;jettySize=auto;html=1;entryX=1;entryY=0.75;entryDx=0;entryDy=0;fontSize=12;startSize=8;endSize=8;" edge="1" parent="1" source="RS6zTbp3aKnHrUGYqz4E-7" target="RS6zTbp3aKnHrUGYqz4E-1">
          <mxGeometry relative="1" as="geometry" />
        </mxCell>
        <mxCell id="RS6zTbp3aKnHrUGYqz4E-7" value="Telcel Datacenter&lt;div&gt;IP: 200.68.161.238&lt;/div&gt;" style="sketch=0;pointerEvents=1;shadow=0;dashed=0;html=1;strokeColor=none;fillColor=#505050;labelPosition=center;verticalLabelPosition=bottom;verticalAlign=top;outlineConnect=0;align=center;shape=mxgraph.office.servers.datacenter;" vertex="1" parent="1">
          <mxGeometry x="404" y="38" width="53" height="53" as="geometry" />
        </mxCell>
        <mxCell id="RS6zTbp3aKnHrUGYqz4E-11" style="edgeStyle=none;curved=1;rounded=0;orthogonalLoop=1;jettySize=auto;html=1;exitX=0.5;exitY=0;exitDx=0;exitDy=0;fontSize=12;startSize=8;endSize=8;" edge="1" parent="1" source="RS6zTbp3aKnHrUGYqz4E-9" target="RS6zTbp3aKnHrUGYqz4E-7">
          <mxGeometry relative="1" as="geometry" />
        </mxCell>
        <mxCell id="RS6zTbp3aKnHrUGYqz4E-9" value="" style="image;aspect=fixed;perimeter=ellipsePerimeter;html=1;align=center;shadow=0;dashed=0;fontColor=#4277BB;labelBackgroundColor=default;fontSize=12;spacingTop=3;image=img/lib/ibm/infrastructure/mobile_provider_network.svg;" vertex="1" parent="1">
          <mxGeometry x="417" y="194.25" width="60" height="60" as="geometry" />
        </mxCell>
      </root>
    </mxGraphModel>
  </diagram>
</mxfile>
